<?xml version="1.0" encoding="utf-8"?>
<svg xmlns="http://www.w3.org/2000/svg" width="330" height="118" viewBox="0 0 330 118" fill="none">
<g clip-path="url(#clip0_4231_137908)">
<path d="M74.5 36.6433V83.2595L80.4938 83.9135V64.2325L85.4193 64.3514V55.4919L80.4938 55.6109V44.5514L85.8941 44.1352V35.2757L74.5 36.6433Z" fill="white"/>
<path d="M169.154 25.4054L152.834 27.3081L146.663 80.1676L139.482 79.6324V28.854L129.631 29.9838V89.5621L155.98 92.5946L157.226 80.8216L165.119 81.4162L166.424 93.7838L179.005 95.2108L169.154 25.4054ZM158.294 69.0486C158.294 69.0486 160.253 47.4054 160.787 38.7243L161.499 38.6649C161.973 47.4054 164.051 69.227 164.051 69.227L158.294 69.0486Z" fill="white"/>
<path d="M118.77 31.4109V52.8757C118.77 56.5622 119.483 64.6487 119.483 64.8271H118.889L114.023 32.0055L106.011 32.9568V86.827L114.023 87.7189V65.7784C114.023 62.0919 113.489 57.9893 113.133 54.3028H113.667C113.667 54.3028 114.438 61.0217 114.498 61.2595L119.127 88.3135L127.672 89.2649V30.4001L118.77 31.4109Z" fill="white"/>
<path d="M208.143 57.9298V57.1568C214.256 56.6811 218.41 51.8055 218.41 45.3838V32.0055C218.41 25.1082 213.425 20.0541 207.49 20.7676L180.489 23.9784V95.5081L207.49 98.6C213.425 99.2541 218.41 94.2 218.41 87.3027V69.5244C218.41 63.1028 214.256 58.2271 208.143 57.9298ZM202.09 81.2973C202.09 82.9027 200.963 84.1513 199.657 84.0324L194.791 83.6757V64.173L199.657 64.2325C201.022 64.2325 202.09 65.5406 202.09 67.146V81.2973ZM202.09 47.5838C202.09 49.1892 200.963 50.4974 199.657 50.5568L194.791 50.6757V35.6919L199.657 35.3352C201.022 35.2163 202.09 36.4649 202.09 38.0703V47.5838Z" fill="white"/>
<path d="M236.094 76.1243C229.032 75.827 223.454 81.3568 223.454 88.4324C223.454 95.5081 228.973 101.93 236.094 102.762C243.453 103.595 249.684 98.1243 249.684 90.5135C249.625 82.8432 243.453 76.4216 236.094 76.1243ZM241.02 82.8432C241.851 82.9027 242.563 84.3892 242.563 86.173C242.563 87.9568 241.851 89.3838 241.02 89.2649C240.189 89.2054 239.477 87.7189 239.477 85.9351C239.477 84.1514 240.189 82.7838 241.02 82.8432ZM229.151 86.5892C229.151 86.4108 229.21 86.2324 229.329 86.0541C229.745 85.1027 230.753 84.5081 231.762 84.627C232.83 84.6865 233.78 85.4595 234.255 86.4108C234.314 86.5892 234.373 86.827 234.433 87.0054C234.433 87.1243 234.433 87.2432 234.373 87.3027C234.255 87.4216 234.136 87.3622 234.017 87.3622C233.839 87.3027 233.661 87.1243 233.483 87.0054C233.009 86.5297 232.415 86.173 231.762 86.173C231.169 86.1135 230.575 86.4108 230.16 86.7676C229.982 86.8865 229.863 87.0054 229.685 87.0649C229.567 87.1243 229.389 87.0649 229.329 87.0054C229.151 86.827 229.151 86.7081 229.151 86.5892ZM245.174 94.0216C244.462 95.5081 241.97 99.4324 236.035 98.7784C230.279 98.1838 228.024 93.9622 227.371 92.4162C227.074 92.5351 226.718 92.5351 226.659 92.3568C226.481 92.1189 226.777 91.6433 227.311 91.2865C227.846 90.9297 228.38 90.8703 228.498 91.1081C228.617 91.2865 228.498 91.5838 228.202 91.8811C228.676 93.0703 230.575 97.1135 236.094 97.7081C241.732 98.3027 243.809 94.4973 244.343 93.3081C243.987 92.9514 243.869 92.5946 243.987 92.4162C244.165 92.1784 244.759 92.3568 245.293 92.8324C245.886 93.3081 246.183 93.8432 246.005 94.0811C245.886 94.2595 245.53 94.2 245.174 94.0216Z" fill="white"/>
<path d="M244.699 74.6378L254.966 15.1784L219.003 19.4595L227.845 73.9838L244.699 74.6378Z" fill="white"/>
<path d="M95.6858 77.1351C96.6353 77.1946 97.1101 76.6595 97.1101 75.2919V33.9676L104.469 33.0757V76.7189C104.469 86.0541 101.442 87.0649 95.6858 86.3514C90.2855 85.6973 87.5557 83.9135 87.5557 75.4703V34.9784L94.3209 34.2055V74.9946C94.2616 76.4216 94.7363 77.0757 95.6858 77.1351Z" fill="white"/>
<path d="M85.8941 44.1352V35.2757L74.5 36.6433V83.2595L80.4938 83.9135V64.2325L85.4193 64.3514V55.4919L80.4938 55.6109V44.5514L85.8941 44.1352Z" fill="white"/>
<path d="M169.154 25.4054L152.834 27.3081L146.663 80.1676L139.482 79.6324V28.854L129.631 29.9838V89.5621L155.98 92.5946L157.226 80.8216L165.119 81.4162L166.424 93.7838L179.005 95.2108L169.154 25.4054ZM158.294 69.0486C158.294 69.0486 160.253 47.4054 160.787 38.7243L161.499 38.6649C161.973 47.4054 164.051 69.227 164.051 69.227L158.294 69.0486Z" fill="white"/>
<path d="M118.77 31.4109V52.8757C118.77 56.5622 119.483 64.6487 119.483 64.8271H118.889L114.023 32.0055L106.011 32.9568V86.827L114.023 87.7189V65.7784C114.023 62.0919 113.489 57.9893 113.133 54.3028H113.667C113.667 54.3028 114.438 61.0217 114.498 61.2595L119.127 88.3135L127.672 89.2649V30.4001L118.77 31.4109Z" fill="white"/>
<path d="M208.143 57.9298V57.1568C214.256 56.6811 218.41 51.8055 218.41 45.3838V32.0055C218.41 25.1082 213.425 20.0541 207.49 20.7676L180.489 23.9784V95.5081L207.49 98.6C213.425 99.2541 218.41 94.2 218.41 87.3027V69.5244C218.41 63.1028 214.256 58.2271 208.143 57.9298ZM202.09 81.2973C202.09 82.9027 200.963 84.1513 199.657 84.0324L194.791 83.6757V64.173L199.657 64.2325C201.022 64.2325 202.09 65.5406 202.09 67.146V81.2973ZM202.09 47.5838C202.09 49.1892 200.963 50.4974 199.657 50.5568L194.791 50.6757V35.6919L199.657 35.3352C201.022 35.2163 202.09 36.4649 202.09 38.0703V47.5838Z" fill="white"/>
<path d="M236.094 76.1243C229.032 75.827 223.454 81.3568 223.454 88.4324C223.454 95.5081 228.973 101.93 236.094 102.762C243.453 103.595 249.684 98.1243 249.684 90.5135C249.625 82.8432 243.453 76.4216 236.094 76.1243ZM241.02 82.8432C241.851 82.9027 242.563 84.3892 242.563 86.173C242.563 87.9568 241.851 89.3838 241.02 89.2649C240.189 89.2054 239.477 87.7189 239.477 85.9351C239.477 84.1514 240.189 82.7838 241.02 82.8432ZM229.151 86.5892C229.151 86.4108 229.21 86.2324 229.329 86.0541C229.745 85.1027 230.753 84.5081 231.762 84.627C232.83 84.6865 233.78 85.4595 234.255 86.4108C234.314 86.5892 234.373 86.827 234.433 87.0054C234.433 87.1243 234.433 87.2432 234.373 87.3027C234.255 87.4216 234.136 87.3622 234.017 87.3622C233.839 87.3027 233.661 87.1243 233.483 87.0054C233.009 86.5297 232.415 86.173 231.762 86.173C231.169 86.1135 230.575 86.4108 230.16 86.7676C229.982 86.8865 229.863 87.0054 229.685 87.0649C229.567 87.1243 229.389 87.0649 229.329 87.0054C229.151 86.827 229.151 86.7081 229.151 86.5892ZM245.174 94.0216C244.462 95.5081 241.97 99.4324 236.035 98.7784C230.279 98.1838 228.024 93.9622 227.371 92.4162C227.074 92.5351 226.718 92.5351 226.659 92.3568C226.481 92.1189 226.777 91.6433 227.311 91.2865C227.846 90.9297 228.38 90.8703 228.498 91.1081C228.617 91.2865 228.498 91.5838 228.202 91.8811C228.676 93.0703 230.575 97.1135 236.094 97.7081C241.732 98.3027 243.809 94.4973 244.343 93.3081C243.987 92.9514 243.869 92.5946 243.987 92.4162C244.165 92.1784 244.759 92.3568 245.293 92.8324C245.886 93.3081 246.183 93.8432 246.005 94.0811C245.886 94.2595 245.53 94.2 245.174 94.0216Z" fill="white"/>
<path d="M244.699 74.6378L254.966 15.1784L219.003 19.4595L227.845 73.9838L244.699 74.6378Z" fill="white"/>
<path d="M95.6858 77.1351C96.6353 77.1946 97.1101 76.6595 97.1101 75.2919V33.9676L104.469 33.0757V76.7189C104.469 86.0541 101.442 87.0649 95.6858 86.3514C90.2855 85.6973 87.5557 83.9135 87.5557 75.4703V34.9784L94.3209 34.2055V74.9946C94.2616 76.4216 94.7363 77.0757 95.6858 77.1351Z" fill="white"/>
</g>
<defs>
<clipPath id="clip0_4231_137908">
<rect width="181" height="88" fill="white" transform="translate(74.5 15)"/>
</clipPath>
</defs>
</svg>